<?xml version="1.0" encoding="utf-8"?>
<!-- Generator: Adobe Illustrator 24.0.1, SVG Export Plug-In . SVG Version: 6.00 Build 0)  -->
<svg version="1.1" xmlns="http://www.w3.org/2000/svg" xmlns:xlink="http://www.w3.org/1999/xlink" x="0px" y="0px"
	 viewBox="0 0 500 500" style="enable-background:new 0 0 500 500;" xml:space="preserve">
<style type="text/css">
	.st0{fill:#F7EFDF;}
	.st1{fill:#44253F;}
	.st2{fill:#E5C4AA;}
	.st3{opacity:0.28;}
	.st4{fill:#F1E2C0;}
	.st5{fill:#C0DCC2;}
	.st6{fill:#CF5144;}
	.st7{font-family:'Broadway';}
	.st8{font-size:53.9526px;}
	.st9{fill:none;}
</style>
<g id="BACKGROUND">
</g>
<g id="OBJECTS">
	<path class="st0" d="M444.9,292.2c-7.1-8.8-17.2-15.3-28.4-17.9c-5.6-1.3-11.4-1.4-16.9-1.4l-16.6-0.1c-2.6,0-5.2,0-7.7-0.1
		c9.6-3.3,18.8-7.5,28.4-10.6c11.7-3.8,23.9-5.9,36.2-6.2c-11.5-5.4-23.6-9.3-36.1-11.6c-2.7-0.5-5.6-0.9-8.4-1.3
		c-0.1,0-0.2,0-0.3,0c-1.2-0.2-2.4-0.3-3.6-0.4c-0.2,0-0.4,0-0.6-0.1c-1.1-0.1-2.3-0.2-3.4-0.3c-0.2,0-0.5,0-0.7-0.1
		c-0.5,0-0.9-0.1-1.4-0.1c5.5-4,10.7-8.3,15.7-12.8c11.6-10.6,22.3-22.8,36.1-29.9c-20.7-6.7-43.5-10.1-64-2.7
		c-8.1,3-15.4,7.4-22.3,12.7l-10.6-6.5l0.8-4.1l10.3-1.8l2.6-0.5c0.5-0.1,0.9-0.1,1.3-0.3c0.5-0.1,0.9-0.4,1.2-0.8
		c0.3-0.4,0.6-0.8,0.7-1.3c0.1-0.5,0.1-1,0.1-1.4l0-2.7l0-10.7l0-5.3l0-1.3c0-0.4,0-0.9-0.2-1.4c-0.3-0.9-1.2-1.6-2.1-1.7l-14.1-2.4
		l-0.9-4.7l12-7.5c1.2-0.6,1.7-2.2,1.2-3.4l-1.4-3.3l-2.7-6.6l-2.7-6.6l-1.4-3.3c-0.3-0.6-0.8-1.2-1.5-1.5c-0.6-0.3-1.4-0.3-2.1-0.2
		l-13.5,3l-2-3.1l8.2-11.2c0.4-0.6,0.8-1.4,0.7-2.2c0-0.8-0.3-1.6-0.9-2.2l-2.5-2.6l-5-5.1l-5-5.1l-2.6-2.6c-0.6-0.6-1.5-0.9-2.4-1
		c-0.4,0-0.9,0.1-1.3,0.2c-0.2,0.1-0.4,0.2-0.6,0.3c-0.2,0.1-0.4,0.2-0.5,0.3l-11,7.6l-2.6-1.8l3.1-13.1c0-0.1,0.1-0.4,0.1-0.6
		c0-0.2,0-0.5,0-0.7c0-0.5-0.1-1-0.3-1.4c-0.4-0.9-1.1-1.6-2-2l-3.4-1.4l-6.6-2.8l-6.6-2.8l-3.4-1.4c-0.9-0.3-2-0.3-2.9,0.1
		c-0.5,0.2-0.9,0.4-1.3,0.8c-0.2,0.2-0.4,0.3-0.5,0.5c-0.2,0.2-0.3,0.4-0.4,0.5l-7,11.2l-2.3-0.4l-2.2-13c0-0.1-0.1-0.4-0.1-0.6
		c-0.1-0.2-0.2-0.5-0.3-0.7c-0.2-0.4-0.5-0.8-0.9-1.2c-0.7-0.7-1.7-1.1-2.7-1.1l-3.7,0l-7.2,0l-7.2,0l-3.7,0c-1,0.1-1.9,0.5-2.6,1.1
		c-0.3,0.3-0.6,0.7-0.9,1.2c-0.1,0.2-0.2,0.4-0.3,0.7c-0.1,0.2-0.1,0.5-0.1,0.6l-2.1,13.2l-3,0.6l-7.2-11.3
		c-0.1-0.1-0.2-0.3-0.3-0.5c-0.1-0.2-0.3-0.3-0.5-0.5c-0.3-0.3-0.7-0.5-1.2-0.7c-0.8-0.3-1.8-0.3-2.6,0l-3.4,1.4l-6.6,2.8l-6.6,2.8
		l-3.4,1.4c-0.8,0.4-1.4,1-1.7,1.8c-0.4,0.7-0.4,1.7-0.2,2.4l3.2,13.4l-2.8,1.9L185.6,99c-0.5-0.4-1.4-0.7-2.1-0.7
		c-0.8,0-1.5,0.3-2.1,0.8l-2.6,2.6l-5.1,5.1l-5.1,5.1l-2.5,2.6c-0.5,0.6-0.8,1.3-0.8,2c0,0.7,0.2,1.5,0.7,2.1l8.1,11.3l-2.4,3.6
		l-13.6-3.1c-0.6-0.2-1.5-0.1-2.1,0.2c-0.7,0.3-1.2,0.8-1.6,1.5l-1.4,3.3l-2.7,6.6l-2.7,6.6l-1.4,3.3c-0.6,1.4,0.1,3.2,1.4,3.9
		l11.7,7.4l-0.7,3.6L145,169c-0.7,0.1-1.5,0.5-2,1c-0.5,0.6-0.9,1.4-0.9,2.2l0,3.6L142,183l-0.1,7.2l0,3.6c0,0.8,0.3,1.7,0.9,2.3
		c0.5,0.6,1.4,1.1,2.1,1.2l13.3,2.4l0.7,3.5l-9.6,5.9c-6.7-5.1-13.8-9.3-21.6-12.2c-20.5-7.5-43.2-4-64,2.7
		c13.8,7.1,24.5,19.3,36.1,29.9c4.9,4.5,10.2,8.8,15.7,12.8c-0.5,0-0.9,0.1-1.4,0.1c-0.2,0-0.5,0-0.7,0.1c-1.1,0.1-2.3,0.2-3.4,0.3
		c-0.2,0-0.4,0-0.6,0.1c-1.2,0.1-2.4,0.3-3.6,0.4c-0.1,0-0.2,0-0.3,0c-2.9,0.4-5.7,0.8-8.4,1.3c-12.5,2.3-24.6,6.1-36.1,11.6
		c12.3,0.3,24.5,2.4,36.2,6.2c9.6,3.1,18.9,7.4,28.4,10.6l-8.6,0l-16.6,0.1c-5.4,0-11.3,0-16.9,1.3c-11.2,2.5-21.3,9-28.5,17.8
		C48,301,44,312.3,43.9,323.6l0.2,33.3l0,0.8l0.8,0c34.2-0.2,68.4-0.1,102.8,0.3c34.3,0.3,68.8,0.8,103.1,0.8
		c34.3,0,68.6-0.2,102.7-0.5l51.1-0.5l50.7-0.7c0.2-10.9,0.5-22.1,0.6-33.4C456,312.3,452,301.1,444.9,292.2z M305,238.1
		c-7,7.4-15.5,13.4-24.9,17.5c-2.7,1.2-5.5,2.2-8.4,3.1v-9.8c27.6-9.1,47.6-35.1,47.6-65.8c0-27.6-16.2-51.5-39.6-62.6v0l0,0h0v0
		L267.5,139v45.3l-15.4,6.4c-1.4,0.6-2.9,0.6-4.2,0l-15.4-6.4V139l-12.1-18.5c-23.8,11.3-40.2,35.7-39.6,63.9
		c0.6,30.1,20.6,55.6,48,64.5v9.8c-3-0.9-6-1.9-8.8-3.2c-9.4-4.1-17.9-10.1-25-17.5c-7-7.4-12.6-16.1-16.4-25.4
		c-3.8-9.4-5.8-19.4-6-29.6c-0.1-10.1,1.7-20.3,5.4-29.8c1.9-4.7,4.2-9.3,7-13.6c2.8-4.3,6-8.3,9.6-12c7.2-7.3,15.9-13.1,25.4-16.9
		c9.5-3.9,19.8-5.7,30-5.6c10.2,0.2,20.3,2.4,29.6,6.4c9.3,4,17.8,9.8,24.9,17c7.1,7.2,12.8,15.8,16.6,25.1
		c3.8,9.3,5.8,19.4,5.8,29.5C327.1,203.3,319,223.3,305,238.1z"/>
	<g>
		<g>
			<g>
				<g>
					<path class="st1" d="M61,254.4c12.3,0.3,24.5,2.4,36.2,6.2c10.9,3.6,21.4,8.6,32.4,11.9c25.1,7.6,52,6,78.2,4.4
						c-1.7,0.1-9-8.6-10.7-10c-3.9-3.2-8-6.2-12.3-8.9c-8.7-5.6-18.1-10.1-27.8-13.3c-18.6-6.2-40.8-5.2-59.8-1.8
						C84.6,245,72.5,248.9,61,254.4z"/>
				</g>
				<g>
					<path class="st2" d="M90,250.7c9.2-0.8,18.5-1.3,27.8-0.8c9.3,0.4,18.6,2,27.6,4.5c9,2.5,17.8,5.6,26.5,8.5
						c4.4,1.4,8.8,2.9,13.2,4.1c4.4,1.2,8.9,2.3,13.3,3l-0.9,4.5c-4.6-1-9.2-2.3-13.6-3.7c-4.5-1.4-8.8-3-13.2-4.7
						c-8.7-3.3-17.3-6.8-26-9.6c-8.8-2.9-17.8-4.8-27-5.6C108.5,250.2,99.2,250.3,90,250.7z"/>
				</g>
			</g>
			<g>
				<path class="st3" d="M151.8,251.8c-5.8-3.8-11.7-7.5-17.4-11.5c-11-0.8-22.2,0-32.7,1.7c23.1,18.7,50.9,27.8,80.6,29.3
					C171.7,264.6,162.4,258.6,151.8,251.8z"/>
			</g>
		</g>
		<g>
			<g>
				<path class="st1" d="M185.9,242.4c-18-17.8-34.8-38.8-58.2-47.2c-20.5-7.5-43.2-4-64,2.7c13.8,7.1,24.5,19.3,36.1,29.9
					c41.5,37.8,104.6,60.3,159.5,48.2c-12.3-3.6-25.1-3.2-37.1-7.9C208.5,262.5,196.5,252.8,185.9,242.4z"/>
			</g>
			<g>
				<path class="st2" d="M94.2,201.7c10.6,1.6,20.9,5.1,30.6,10c9.7,4.8,18.6,11,27.2,17.5c8.6,6.5,16.8,13.4,25.4,19.7
					c4.3,3.2,8.6,6.2,13.3,8.5c4.6,2.3,9.5,3.8,14.4,3.7l0,4.5c-5.9-0.1-11.4-2.1-16.3-4.7c-4.9-2.7-9.2-6-13.5-9.3
					c-8.5-6.7-16.5-13.8-24.8-20.6c-8.3-6.8-16.9-13.2-26.3-18.3C114.9,207.6,104.8,203.7,94.2,201.7z"/>
			</g>
		</g>
	</g>
	<g>
		<g>
			<g>
				<g>
					<path class="st1" d="M439.9,254.4c-12.3,0.3-24.5,2.4-36.2,6.2c-10.9,3.6-21.4,8.6-32.4,11.9c-25.1,7.6-52,6-78.2,4.4
						c1.7,0.1,9-8.6,10.7-10c3.9-3.2,8-6.2,12.3-8.9c8.7-5.6,18.1-10.1,27.8-13.3c18.6-6.2,40.8-5.2,59.8-1.8
						C416.3,245,428.4,248.9,439.9,254.4z"/>
				</g>
				<g>
					<path class="st2" d="M410.9,250.7c-9.3-0.4-18.5-0.5-27.7,0.3c-9.2,0.8-18.2,2.7-27,5.6c-8.8,2.8-17.3,6.3-26,9.6
						c-4.4,1.6-8.7,3.2-13.2,4.7c-4.5,1.4-9,2.7-13.6,3.7l-0.9-4.5c4.5-0.8,8.9-1.8,13.3-3c4.4-1.2,8.8-2.6,13.2-4.1
						c8.8-2.9,17.5-6.1,26.5-8.5c9-2.5,18.3-4.2,27.6-4.5C392.4,249.5,401.7,250,410.9,250.7z"/>
				</g>
			</g>
			<g>
				<path class="st3" d="M349.1,251.8c5.8-3.8,11.7-7.5,17.4-11.5c11-0.8,22.2,0,32.7,1.7c-23.1,18.7-50.9,27.8-80.6,29.3
					C329.2,264.6,338.5,258.6,349.1,251.8z"/>
			</g>
		</g>
		<g>
			<g>
				<path class="st1" d="M315,242.4c18-17.8,34.8-38.8,58.2-47.2c20.5-7.5,43.2-4,64,2.7c-13.8,7.1-24.5,19.3-36.1,29.9
					c-41.5,37.8-104.6,60.3-159.5,48.2c12.3-3.6,25.1-3.2,37.1-7.9C292.4,262.5,304.4,252.8,315,242.4z"/>
			</g>
			<g>
				<path class="st2" d="M406.7,201.7c-10.6,2-20.7,5.8-30,11c-9.4,5.1-18,11.5-26.3,18.3c-8.3,6.8-16.3,13.9-24.8,20.6
					c-4.2,3.3-8.6,6.7-13.5,9.3c-4.9,2.7-10.4,4.7-16.3,4.7l0-4.5c4.9,0.1,9.8-1.4,14.4-3.7c4.6-2.3,9-5.4,13.3-8.5
					c8.6-6.3,16.9-13.2,25.4-19.7c8.5-6.5,17.5-12.7,27.2-17.5C385.7,206.8,396,203.3,406.7,201.7z"/>
			</g>
		</g>
	</g>
	<g>
		<path class="st4" d="M455.2,355.2H44.9v-32.4c0-27.4,22.2-49.7,49.7-49.7h310.9c27.4,0,49.7,22.2,49.7,49.7V355.2z"/>
		<path class="st1" d="M455.3,355.4l-50.7,0.7l-51.1,0.5c-34.1,0.3-68.4,0.5-102.7,0.5c-17.2,0-34.4-0.1-51.6-0.3l-51.6-0.5
			c-34.3-0.4-68.5-0.5-102.8-0.3l-0.8,0l0-0.8L43.9,322c0-11.3,4.1-22.6,11.2-31.4c7.2-8.8,17.3-15.3,28.5-17.8
			c5.6-1.3,11.4-1.3,16.9-1.3l16.6-0.1l66.5-0.3c22.2-0.1,44.3-0.2,66.5-0.2c44.3-0.1,88.6,0.2,133,0.5l16.6,0.1l4.2,0
			c0.7,0,1.4,0,2.1,0l2.1,0.1c1.4,0.1,2.9,0.1,4.3,0.4l2.1,0.3c0.7,0.1,1.4,0.2,2.1,0.4c11.2,2.5,21.3,9,28.4,17.9
			c7.1,8.9,11.1,20.1,11,31.4C455.8,333.2,455.5,344.4,455.3,355.4z M455,355.1l-0.7-33.1l-0.3-4.1l-0.7-4c-0.1-0.3-0.1-0.7-0.2-1
			l-0.3-1l-0.5-2c-0.2-0.6-0.3-1.3-0.6-2l-0.7-1.9c-1.9-5.1-4.7-9.8-8.1-14c-7-8.2-16.7-14.1-27.2-16.3c-5.3-1.1-10.6-1.1-16.2-1
			L383,275c-44.3,0.3-88.6,0.6-133,0.5c-22.2,0-44.3-0.1-66.5-0.2l-66.5-0.3l-16.6-0.1c-5.6-0.1-10.9-0.1-16.2,1
			c-10.5,2.1-20.2,8-27.1,16.3c-6.9,8.3-11,19-11.2,29.8c-0.2,11-0.2,22.2-0.2,33.2l-0.8-0.8c34.1,0.2,68.3,0.1,102.4-0.3l51-0.5
			c17-0.2,34-0.3,51-0.3c34,0,68.2,0.2,102.4,0.5l51.5,0.5L455,355.1z"/>
	</g>
	<g>
		<path class="st1" d="M86,289c13.1-0.4,26.2-0.5,39.4-0.8c13.1-0.2,26.2-0.4,39.4-0.5c13.1-0.2,26.2-0.2,39.4-0.3l39.4-0.1
			l39.4,0.1c13.1,0.1,26.2,0.1,39.4,0.3c13.1,0.1,26.2,0.3,39.4,0.5c13.1,0.3,26.2,0.4,39.4,0.8c-13.1,0.4-26.2,0.6-39.4,0.8
			c-13.1,0.2-26.2,0.4-39.4,0.5c-13.1,0.2-26.2,0.2-39.4,0.3l-39.4,0.1l-39.4-0.1c-13.1-0.1-26.2-0.1-39.4-0.3
			c-13.1-0.1-26.2-0.3-39.4-0.5C112.2,289.6,99.1,289.4,86,289z"/>
	</g>
	<g>
		<path class="st1" d="M72.8,345.3c14.8-0.4,29.5-0.6,44.3-0.8l44.3-0.5c29.5-0.3,59.1-0.4,88.6-0.4l44.3,0.1
			c14.8,0.1,29.5,0.1,44.3,0.3l44.3,0.5c14.8,0.3,29.5,0.4,44.3,0.8c-14.8,0.4-29.5,0.6-44.3,0.8l-44.3,0.5
			c-14.8,0.2-29.5,0.2-44.3,0.3L250,347c-29.5,0-59.1-0.1-88.6-0.4l-44.3-0.5C102.4,345.8,87.6,345.6,72.8,345.3z"/>
	</g>
	<g>
		<path class="st1" d="M380.9,281.1c-11.5,0.4-22.9,0.5-34.4,0.8l-34.4,0.4c-22.9,0.3-45.8,0.3-68.7,0.4c-22.9,0-45.8-0.1-68.7-0.4
			l-34.4-0.4c-11.5-0.3-22.9-0.4-34.4-0.8c11.5-0.4,22.9-0.5,34.4-0.8l34.4-0.4c22.9-0.3,45.8-0.3,68.7-0.4
			c22.9,0,45.8,0.1,68.7,0.4l34.4,0.4C358,280.6,369.5,280.8,380.9,281.1z"/>
	</g>
	<g>
		<g>
			<path class="st5" d="M355,168.2l-14.2-2.4c-0.3-1.7-0.6-3.4-1-5l12.2-7.7c1.1-0.7,1.5-2,1-3.1l-8.2-19.6
				c-0.5-1.1-1.7-1.8-2.9-1.5l-14.1,3.3c-0.8-1.3-1.7-2.6-2.6-3.9l8.4-11.8c0.7-1,0.6-2.4-0.3-3.3l-15-15c-0.9-0.9-2.3-1-3.3-0.3
				l-11.8,8.4c-1.4-1-2.8-1.9-4.2-2.8l3.2-14.2c0.3-1.2-0.4-2.4-1.5-2.9l-19.7-8.1c-1.1-0.5-2.5,0-3.1,1l-7.7,12.3
				c-1.5-0.3-3-0.6-4.5-0.9l-2.4-14.3c-0.2-1.2-1.3-2.1-2.5-2.1h-21.3c-1.2,0-2.3,0.9-2.5,2.1l-2.4,14.3c-1.7,0.3-3.3,0.6-5,1
				l-7.7-12.3c-0.7-1.1-2-1.5-3.1-1L199,86.6c-1.1,0.5-1.8,1.7-1.5,2.9l3.3,14.1c-1.3,0.8-2.6,1.7-3.9,2.6l-11.8-8.4
				c-1-0.7-2.4-0.6-3.3,0.3l-15,15c-0.9,0.9-1,2.3-0.3,3.3l8.4,11.8c-1,1.4-1.9,2.8-2.8,4.2l-14.1-3.2c-1.2-0.3-2.4,0.4-2.9,1.5
				l-8.1,19.7c-0.5,1.1,0,2.5,1,3.1l12.2,7.6c-0.3,1.5-0.6,3.1-0.9,4.6l-14.2,2.4c-1.2,0.2-2.1,1.3-2.1,2.5V192
				c0,1.2,0.9,2.3,2.1,2.5l14.2,2.4c0.3,1.7,0.6,3.4,1,5.1l-12.1,7.7c-1.1,0.7-1.5,2-1,3.1l8.2,19.6c0.5,1.1,1.7,1.8,2.9,1.5l14-3.2
				c0.9,1.3,1.7,2.7,2.7,4l-8.3,11.7c-0.7,1-0.6,2.4,0.3,3.3l15,15c0.9,0.9,2.3,1,3.3,0.3l11.6-8.3c1.4,1,2.9,2,4.4,2.9l-3.2,13.9
				c-0.3,1.2,0.4,2.4,1.5,2.9l19.7,8.1c1.1,0.5,2.5,0,3.1-1l7.5-12.1c1.6,0.3,3.1,0.7,4.7,0.9l2.4,14.1c0.2,1.2,1.3,2.1,2.5,2.1
				h21.3c1.2,0,2.3-0.9,2.5-2.1l2.4-14.1c1.7-0.3,3.4-0.6,5.1-1l7.6,12.1c0.7,1.1,2,1.5,3.1,1l19.6-8.2c1.1-0.5,1.8-1.7,1.5-2.9
				l-3.2-13.9c1.4-0.9,2.7-1.8,4-2.7l11.6,8.3c1,0.7,2.4,0.6,3.3-0.3l15-15c0.9-0.9,1-2.3,0.3-3.3l-8.3-11.7c1-1.4,2-2.9,2.9-4.3
				l14,3.2c1.2,0.3,2.4-0.4,2.9-1.5l8.1-19.7c0.5-1.1,0-2.5-1-3.1l-12.2-7.6c0.3-1.5,0.6-3.1,0.9-4.6l14.2-2.4
				c1.2-0.2,2.1-1.3,2.1-2.5v-21.3C357.1,169.5,356.2,168.4,355,168.2z M250,260.5c-43.6,0-78.9-35.3-78.9-78.9
				c0-43.6,35.3-78.9,78.9-78.9s78.9,35.3,78.9,78.9C329,225.1,293.6,260.5,250,260.5z"/>
			<g>
				<path class="st1" d="M355,168.4l-14.2-2.4l-0.1,0l0-0.2l-1-5l0-0.2l0.1-0.1l12.1-7.7c1-0.5,1.4-1.8,1-2.8l-1.4-3.3l-2.8-6.6
					l-2.8-6.6l-1.4-3.3c-0.4-0.9-1.5-1.4-2.5-1.1l-13.9,3.4l-0.4,0.1l-0.3-0.4l-2.6-3.8l-0.3-0.4l0.3-0.4l8.2-11.8
					c0.5-0.7,0.5-1.6-0.1-2.2l-2.5-2.5l-5.1-5l-5.1-5l-2.5-2.5c-0.2-0.2-0.6-0.3-0.9-0.3c-0.2,0-0.3,0-0.5,0.1
					c-0.1,0-0.1,0.1-0.2,0.1c-0.1,0-0.1,0.1-0.3,0.2l-11.6,8.4l-0.7,0.5l-0.8-0.5l-4.2-2.7l-0.8-0.5l0.2-1l3.1-14c0-0.2,0-0.2,0-0.3
					c0-0.1,0-0.1,0-0.2c0-0.1,0-0.2-0.1-0.3c-0.1-0.2-0.3-0.4-0.5-0.5l-3.3-1.3l-6.7-2.7l-6.6-2.7l-3.2-1.3c-0.2-0.1-0.4-0.1-0.6,0
					c-0.1,0-0.2,0.1-0.3,0.2c0,0-0.1,0.1-0.1,0.1c0,0,0,0.1-0.1,0.2l-7.6,12.2l-0.6,1l-1.2-0.2l-4.4-0.9l-1.2-0.2l-0.2-1.1
					l-2.4-14.2c0-0.2,0-0.2-0.1-0.3c0-0.1,0-0.1-0.1-0.1c0-0.1-0.1-0.2-0.2-0.3c-0.2-0.2-0.4-0.2-0.6-0.3l-3.5,0l-7.2,0l-7.2,0
					l-3.5,0c-0.2,0-0.4,0.1-0.6,0.3c-0.1,0.1-0.2,0.2-0.2,0.3c0,0.1,0,0.1-0.1,0.2c0,0.1,0,0.1-0.1,0.3L235.9,91l-0.2,1l-1,0.2
					l-4.9,0.9l-1,0.2l-0.5-0.8l-7.6-12.2c-0.1-0.2-0.1-0.2-0.2-0.3c0-0.1-0.1-0.1-0.1-0.2c-0.1-0.1-0.2-0.2-0.4-0.2
					c-0.3-0.1-0.6-0.1-0.9,0l-3.3,1.3l-6.7,2.7l-6.7,2.7l-3.3,1.3c-0.6,0.3-1,1-0.8,1.8l3.1,14l0.1,0.6l-0.5,0.4l-3.8,2.5l-0.5,0.3
					l-0.5-0.3l-11.6-8.4c-0.7-0.6-1.7-0.6-2.4,0l-2.5,2.5l-5.1,5.1l-5.1,5.1l-2.5,2.5c-0.6,0.7-0.7,1.7-0.1,2.5l8.3,11.7l0.2,0.3
					l-0.2,0.4l-2.8,4.2l-0.2,0.3l-0.4-0.1l-14-3.2c-1-0.3-1.9,0.2-2.3,1l-1.3,3.3l-2.7,6.6l-2.7,6.6l-1.3,3.3
					c-0.3,0.8,0,1.8,0.9,2.3l12.2,7.6l0.4,0.3l-0.1,0.5L160,166l-0.1,0.5l-0.5,0.1l-14.1,2.5c-0.9,0.1-1.5,0.8-1.5,1.6l0,3.5
					l0.1,7.2l0.1,7.2l0,3.5c0,0.7,0.6,1.4,1.4,1.5l14.1,2.3l0.8,0.1l0.2,0.8l1,5l0.2,0.8l-0.7,0.5l-12,7.7c-0.6,0.3-0.7,1-0.5,1.5
					l1.4,3.2l2.8,6.6l2.8,6.6l1.4,3.3c0.2,0.5,0.7,0.7,1.3,0.6l13.9-3.3l1.1-0.3l0.6,0.9l2.6,3.9l0.6,0.9l-0.6,0.9l-8.2,11.7
					c-0.3,0.4-0.2,0.8,0,1.1l2.5,2.5l5.1,5l5.1,5l2.5,2.5c0.3,0.3,0.7,0.3,1,0l11.6-8.3l1-0.7l1.1,0.7l4.3,2.8l1.1,0.7l-0.3,1.2
					l-3.1,13.9c-0.1,0.4,0.1,0.7,0.4,0.8l3.3,1.3l6.6,2.7l6.6,2.7l3.3,1.3c0.3,0.1,0.6,0,0.7-0.3l7.5-12.1l0.7-1.2l1.4,0.3l4.6,0.9
					l1.4,0.3l0.2,1.4l2.4,14c0,0.3,0.3,0.5,0.5,0.5l3.5,0l7.1,0l7.1,0l3.5,0c0.2,0,0.5-0.2,0.5-0.5l2.4-14l0.2-1.3l1.4-0.3l5-1
					l1.4-0.3l0.7,1.1l7.6,12.1c0.2,0.3,0.5,0.4,0.8,0.3l3.3-1.4l6.6-2.7l6.6-2.7l3.3-1.3c0.3-0.1,0.5-0.5,0.4-0.9l-3.1-13.9
					l-0.3-1.2l1-0.7l3.9-2.6l1-0.7l0.9,0.7l11.6,8.3c0.4,0.3,1,0.3,1.3-0.1l2.5-2.5l5.1-5l5.1-5l2.5-2.5c0.4-0.4,0.5-1.1,0.1-1.7
					l-8.1-11.7l-0.4-0.6l0.4-0.6l2.9-4.2l0.4-0.6l0.7,0.2l13.9,3.3c0.8,0.2,1.7-0.2,2-1l1.4-3.3l2.8-6.6l2.8-6.6l1.4-3.3
					c0.4-0.9,0-2-0.9-2.5l-12-7.7l-0.2-0.1l0.1-0.3l0.9-4.6l0.1-0.3l0.2,0l10.6-1.7l2.6-0.4c0.4-0.1,0.9-0.1,1.3-0.2
					c0.4-0.1,0.7-0.3,1-0.6c0.3-0.3,0.5-0.7,0.6-1c0.1-0.4,0-0.8,0.1-1.3l0-2.7l0-10.7l0-5.3l0-1.3c0-0.5,0-0.9-0.1-1.3
					C356.5,169.2,355.8,168.6,355,168.4z M355,168.1c1,0.1,1.8,0.8,2.1,1.7c0.2,0.4,0.2,1,0.2,1.4l0,1.3l0,5.3l0,10.7l0,2.7
					c0,0.4,0,0.9-0.1,1.4c-0.1,0.5-0.3,0.9-0.7,1.3c-0.3,0.4-0.8,0.6-1.2,0.8c-0.5,0.1-0.9,0.2-1.3,0.3l-2.6,0.5l-10.5,1.9l0.3-0.3
					l-0.9,4.7l-0.2-0.4l12.2,7.4c1.2,0.7,1.9,2.4,1.4,3.7l-1.3,3.3l-2.6,6.6L347,229l-1.3,3.3c-0.3,0.7-0.9,1.3-1.6,1.7
					c-0.7,0.4-1.6,0.4-2.3,0.3l-14-3l1.1-0.4l-2.9,4.4l0-1.2l8.4,11.5c0.5,0.6,0.8,1.6,0.8,2.5c0,0.9-0.4,1.8-1,2.4l-2.5,2.6l-5,5.1
					l-5,5.1l-2.5,2.6c-0.7,0.7-1.6,1.1-2.6,1.1c-0.9,0.1-1.9-0.2-2.7-0.8l-11.7-8.2l1.9,0l-4,2.8l0.7-1.8l3.3,13.8
					c0.2,0.9,0.1,2-0.3,2.9c-0.4,0.9-1.2,1.7-2.1,2.1l-3.3,1.4L292,282l-6.6,2.8l-3.3,1.4c-1,0.4-2.1,0.4-3.1,0.1
					c-1-0.3-1.9-1-2.4-1.9l-7.6-12l2.1,0.9l-5.2,1.1l1.6-1.6l-2.3,14c-0.2,1-0.7,2-1.5,2.7c-0.8,0.7-1.9,1.1-2.9,1.1l-3.6,0l-7.1,0
					l-7.1,0l-3.6,0c-1.1,0-2.1-0.4-2.9-1.1c-0.8-0.7-1.4-1.7-1.5-2.7l-2.4-14l1.6,1.6l-4.8-0.9l2.1-0.9l-7.6,12.1
					c-0.5,0.9-1.4,1.6-2.4,1.9c-1,0.3-2.1,0.3-3.1-0.1l-3.3-1.4l-6.6-2.7l-6.6-2.7l-3.3-1.4c-0.9-0.4-1.7-1.2-2.2-2.1
					c-0.5-0.9-0.6-2.1-0.3-3l3.2-13.9l0.8,2l-4.4-3l2.1,0l-11.6,8.2c-0.8,0.6-1.8,0.9-2.8,0.8c-1-0.1-2-0.5-2.7-1.2l-2.5-2.5l-5-5.1
					l-5-5.1l-2.5-2.6c-0.7-0.7-1.1-1.7-1.1-2.7c-0.1-1,0.3-2,0.8-2.7l8.3-11.6l0,1.9l-2.7-4.1l1.7,0.7l-13.9,3.1
					c-0.9,0.2-1.9,0.1-2.7-0.3c-0.8-0.4-1.5-1.1-1.9-2l-1.4-3.3l-2.7-6.6l-2.7-6.6l-1.4-3.4c-0.3-0.9-0.3-1.8,0-2.7
					c0.3-0.8,1-1.6,1.7-2l12.1-7.5l-0.5,1.3l-1-5.1l1,1l-14.1-2.5c-0.8-0.1-1.6-0.5-2.1-1.2c-0.6-0.6-0.9-1.4-0.9-2.3l0-3.6l0.1-7.2
					l0.1-7.2l0-3.6c0-0.8,0.4-1.6,0.9-2.2c0.5-0.6,1.3-1,2-1l14.1-2.3l-0.6,0.6l0.9-4.6l0.3,0.8l-12.1-7.6c-0.6-0.4-1.2-1-1.4-1.7
					c-0.3-0.7-0.3-1.5,0-2.2l1.4-3.3l2.7-6.6l2.7-6.6l1.4-3.3c0.3-0.7,0.9-1.2,1.6-1.5c0.7-0.3,1.5-0.3,2.1-0.2l14,3.2l-0.6,0.3
					l2.8-4.3l0,0.7l-8.4-11.7c-0.4-0.5-0.7-1.3-0.7-2.1c0-0.8,0.3-1.5,0.8-2l2.5-2.6l5.1-5.1l5.1-5.1l2.6-2.6
					c0.6-0.5,1.3-0.8,2.1-0.8c0.8,0,1.6,0.3,2.1,0.7l11.8,8.2l-1,0l3.9-2.6l-0.4,1l-3.4-14c0-0.1-0.1-0.4-0.1-0.6c0-0.2,0-0.4,0-0.6
					c0-0.4,0.1-0.8,0.3-1.2c0.3-0.8,1-1.4,1.7-1.8l3.4-1.4l6.6-2.8l6.6-2.8l3.4-1.4c0.8-0.3,1.8-0.3,2.6,0c0.4,0.2,0.8,0.4,1.2,0.7
					c0.2,0.1,0.3,0.3,0.5,0.5c0.1,0.2,0.3,0.4,0.3,0.5l7.8,12.1l-1.5-0.6l5-1l-1.2,1.2l2.3-14.2c0-0.1,0.1-0.4,0.1-0.6
					c0.1-0.2,0.2-0.5,0.3-0.7c0.2-0.4,0.5-0.8,0.9-1.2c0.7-0.7,1.6-1.1,2.6-1.1l3.7,0l7.2,0l7.2,0l3.7,0c1,0.1,1.9,0.5,2.7,1.1
					c0.4,0.3,0.7,0.7,0.9,1.2c0.1,0.2,0.2,0.5,0.3,0.7c0.1,0.2,0.1,0.5,0.1,0.6l2.4,14.2l-1.4-1.4l4.6,0.9l-1.8,0.8l7.6-12.2
					c0.1-0.1,0.2-0.3,0.4-0.5c0.2-0.2,0.3-0.4,0.5-0.5c0.4-0.3,0.8-0.6,1.3-0.8c0.9-0.4,2-0.4,2.9-0.1l3.4,1.4l6.6,2.8l6.6,2.8
					l3.4,1.4c0.9,0.4,1.6,1.1,2,2c0.2,0.4,0.3,0.9,0.3,1.4c0,0.2,0,0.5,0,0.7c0,0.2-0.1,0.5-0.1,0.6l-3.3,14l-0.6-1.5l4.3,2.9
					l-1.6,0l11.8-8.2c0.1-0.1,0.3-0.2,0.5-0.3c0.2-0.1,0.4-0.2,0.6-0.3c0.4-0.1,0.9-0.2,1.3-0.2c0.9,0,1.7,0.4,2.4,1l2.6,2.6l5,5.1
					l5,5.1l2.5,2.6c0.5,0.6,0.9,1.4,0.9,2.2c0,0.8-0.3,1.6-0.7,2.2l-8.4,11.6l0-0.8l2.6,3.9l-0.7-0.3l14-3.1
					c0.6-0.2,1.4-0.1,2.1,0.2c0.6,0.3,1.2,0.8,1.5,1.5l1.4,3.3l2.7,6.6l2.7,6.6l1.4,3.3c0.5,1.3-0.1,2.8-1.2,3.4l-12.1,7.6l0.1-0.2
					l1,5l-0.2-0.2L355,168.1z"/>
				<path class="st1" d="M250,260.6c-10.4,0-20.7-2-30.4-5.7c-9.7-3.8-18.7-9.5-26.3-16.7c-7.6-7.2-13.8-16.1-17.8-25.8
					c-4.1-9.7-6.1-20.3-6-30.8c0.2-10.5,2.4-21,6.6-30.6c2.1-4.8,4.7-9.4,7.6-13.7c3-4.3,6.3-8.3,10-12c7.4-7.3,16.2-13.2,25.8-17.3
					c9.6-4,20-6.3,30.5-6.4c10.5-0.2,21,1.7,30.8,5.7c9.8,3.9,18.8,9.8,26.3,17.2c7.5,7.4,13.6,16.3,17.7,26.1
					c4.1,9.8,6.2,20.4,6.2,31c-0.1,10.6-2.2,21.2-6.3,30.9c-4.1,9.7-10.3,18.6-17.9,25.8c-7.6,7.2-16.6,13-26.3,16.7
					C270.7,258.7,260.4,260.7,250,260.6z M250,260.3c5.2,0,10.3-0.5,15.3-1.6c5-1.1,10-2.6,14.7-4.7c9.4-4.1,17.9-10.1,24.9-17.5
					c7-7.4,12.5-16.1,16.3-25.4c3.8-9.4,5.7-19.4,5.7-29.5c0-10.1-2-20.1-5.8-29.5c-3.8-9.3-9.5-17.9-16.6-25.1
					c-7.1-7.2-15.6-13-24.9-17c-9.3-4-19.4-6.2-29.6-6.4c-10.2-0.1-20.5,1.7-30,5.6c-9.5,3.8-18.2,9.7-25.4,17
					c-3.6,3.7-6.8,7.7-9.6,12c-2.8,4.3-5.1,8.9-7,13.6c-3.7,9.5-5.5,19.7-5.4,29.8c0.1,10.1,2.2,20.2,6,29.6c0.5,1.2,1,2.3,1.5,3.5
					c0.5,1.2,1.1,2.3,1.7,3.4c0.6,1.1,1.2,2.2,1.8,3.3c0.6,1.1,1.3,2.2,2,3.2c2.8,4.2,5.9,8.3,9.4,12c7,7.4,15.6,13.4,25,17.5
					c4.7,2.1,9.6,3.6,14.7,4.7C239.7,259.7,244.9,260.2,250,260.3z"/>
			</g>
		</g>
		<g>
			<polygon class="st1" points="225,85 211.3,89.2 224.4,83.2 			"/>
		</g>
		<g>
			<polygon class="st1" points="227.6,89.2 208.8,94.6 227,87.4 			"/>
		</g>
		<g>
			<polygon class="st1" points="264,82.3 251.5,81.3 264,80.4 			"/>
		</g>
		<g>
			<polygon class="st1" points="264.9,87.6 247.5,86.7 264.9,85.7 			"/>
		</g>
		<g>
			<polygon class="st1" points="300.7,94.8 288.4,88.9 301.4,93 			"/>
		</g>
		<g>
			<polygon class="st1" points="299.4,100.5 282,91.4 300.2,98.8 			"/>
		</g>
		<g>
			<polygon class="st1" points="330.5,120.5 323.4,112.7 331.8,119.1 			"/>
		</g>
		<g>
			<polygon class="st1" points="326.4,126.1 315.9,113.1 327.8,124.9 			"/>
		</g>
		<g>
			<polygon class="st1" points="311.6,262.4 322.2,252.3 313,263.7 			"/>
		</g>
		<g>
			<polygon class="st1" points="306.1,258.4 320.3,245 307.4,259.7 			"/>
		</g>
		<g>
			<polygon class="st1" points="276.1,279.6 293.1,273.1 276.8,281.3 			"/>
		</g>
		<g>
			<polygon class="st1" points="272.6,274.1 292.4,267.1 273.4,275.8 			"/>
		</g>
		<g>
			<polygon class="st1" points="200.6,262.3 217.5,270.3 199.9,264 			"/>
		</g>
		<g>
			<polygon class="st1" points="199.4,267.7 208.9,272.2 198.7,269.5 			"/>
		</g>
		<g>
			<polygon class="st1" points="173.4,237 185,250.7 172,238.3 			"/>
		</g>
		<g>
			<polygon class="st1" points="169.9,241.7 177,249.6 168.6,243.1 			"/>
		</g>
		<g>
			<polygon class="st1" points="156.8,204.3 163.2,222.6 155,205.1 			"/>
		</g>
		<g>
			<polygon class="st1" points="152.1,207.3 155.8,219.3 150.3,208 			"/>
		</g>
		<g>
			<polygon class="st1" points="148.9,167.7 148,177.2 147,167.7 			"/>
		</g>
		<g>
			<polygon class="st1" points="154.4,166.9 153.5,183.7 152.6,166.9 			"/>
		</g>
		<g>
			<polygon class="st1" points="337.7,232.4 342.1,223.3 339.5,233 			"/>
		</g>
		<g>
			<polygon class="st1" points="330.7,230.7 337.6,216.2 332.5,231.4 			"/>
		</g>
		<g>
			<polygon class="st1" points="161.9,130.4 157.1,139.1 160.2,129.6 			"/>
		</g>
		<g>
			<polygon class="st1" points="167.8,131.7 160.9,143.9 166.1,130.9 			"/>
		</g>
		<g>
			<polygon class="st1" points="187.4,99.8 182.5,102.6 186.1,98.3 			"/>
		</g>
		<g>
			<polygon class="st1" points="192.3,103.3 184.6,109.1 191.1,101.9 			"/>
		</g>
		<g>
			<polygon class="st1" points="348.6,155 346.9,147.6 350.4,154.3 			"/>
		</g>
		<g>
			<polygon class="st1" points="343.3,158.3 341.9,151.9 345.1,157.7 			"/>
		</g>
		<g>
			<polygon class="st1" points="351.8,194.9 352.8,186.9 353.7,194.9 			"/>
		</g>
		<g>
			<polygon class="st1" points="344,196.2 344.9,186 345.9,196.2 			"/>
		</g>
	</g>
	<g>
		<g>
			<path class="st1" d="M250,267.2c-11.2,0-22.4-2.1-32.8-6.4c-10.4-4.3-19.9-10.6-27.9-18.5c-8-7.9-14.4-17.4-18.8-27.8
				c-4.4-10.4-6.5-21.7-6.6-32.9c0-11.3,2.2-22.5,6.6-32.9c4.3-10.4,10.7-19.9,18.7-27.9c8-8,17.5-14.3,27.9-18.6
				c10.4-4.3,21.7-6.5,32.9-6.4c11.2,0,22.5,2.3,32.8,6.6c10.4,4.3,19.9,10.7,27.8,18.6c8,7.9,14.4,17.4,18.7,27.8
				c4.3,10.4,6.6,21.6,6.6,32.9c0,11.2-2.1,22.5-6.5,32.9c-4.3,10.4-10.8,19.9-18.7,27.8c-8,7.9-17.5,14.3-27.9,18.5
				C272.5,265,261.2,267.2,250,267.2z M250,267.1c11.2,0,22.4-2.3,32.7-6.6c10.3-4.3,19.8-10.7,27.6-18.6
				c7.9-7.9,14.2-17.4,18.4-27.7c4.2-10.3,6.5-21.4,6.5-32.6c0-11.2-2.1-22.3-6.4-32.7c-4.2-10.3-10.6-19.8-18.4-27.8
				c-7.9-7.9-17.4-14.3-27.7-18.5c-10.3-4.3-21.5-6.4-32.7-6.4c-11.2,0-22.3,2.3-32.6,6.6c-10.3,4.3-19.7,10.7-27.6,18.5
				c-7.9,7.9-14.2,17.3-18.5,27.6c-4.3,10.3-6.5,21.4-6.5,32.6c0,11.2,2.2,22.3,6.5,32.6c4.2,10.3,10.5,19.8,18.4,27.7
				c7.9,7.9,17.3,14.3,27.6,18.6C227.6,264.8,238.8,267,250,267.1z"/>
		</g>
		<g>
			<polygon class="st2" points="216.6,180.8 221,121.1 231.8,137.6 231.8,184 			"/>
			<path class="st1" d="M221.5,123.2l9.5,14.6v45.3l-13.7-2.8L221.5,123.2 M220.4,118.9l-4.6,62.5l16.7,3.4v-47.4L220.4,118.9
				L220.4,118.9z"/>
		</g>
		<g>
			<polygon class="st2" points="268.3,137.6 279.1,121.1 283.5,180.8 268.3,184 			"/>
			<path class="st1" d="M278.5,123.2l4.2,57l-13.7,2.8v-45.3L278.5,123.2 M279.6,118.9l-12.1,18.5v47.4l16.7-3.4L279.6,118.9
				L279.6,118.9z"/>
		</g>
		<path class="st1" d="M279.6,118.9V174c0,2.2-1.4,4.3-3.4,5.1l-24.1,9.9c-1.4,0.6-2.9,0.6-4.2,0l-24.1-9.9
			c-2.1-0.9-3.4-2.9-3.4-5.1v-55.1c-23.8,11.3-40.2,35.7-39.6,63.9c0.7,36.8,30.7,67,67.5,67.9c39,0.9,70.9-30.4,70.9-69.2
			C319.2,153.9,303,130,279.6,118.9z"/>
		<g>
			<path class="st2" d="M276.2,186c-4.2,2.1-8.5,4.1-12.8,6c-2.1,1-4.3,1.9-6.5,2.8l-3.2,1.4l-0.8,0.3c-0.3,0.1-0.5,0.2-0.9,0.3
				c-0.6,0.2-1.3,0.3-2,0.3c-0.7,0-1.4-0.1-2-0.3c-0.3-0.1-0.6-0.2-0.9-0.3l-0.8-0.3l-3.2-1.4c-2.2-0.9-4.3-1.9-6.5-2.8
				c-4.3-1.9-8.5-3.9-12.8-6.1c4.5,1.5,8.9,3,13.3,4.7c2.2,0.8,4.4,1.7,6.6,2.5l3.3,1.3l0.8,0.3c0.3,0.1,0.5,0.2,0.8,0.3
				c0.5,0.2,1,0.2,1.4,0.2c0.5,0,1-0.1,1.4-0.2c0.2-0.1,0.5-0.2,0.8-0.3l0.8-0.3l3.3-1.3c2.2-0.8,4.4-1.7,6.6-2.5
				C267.3,189,271.7,187.4,276.2,186z"/>
		</g>
		<g>
			<path class="st2" d="M204.6,143.9c-4.1,5.6-7.3,11.8-9.4,18.4c-2.1,6.5-3.1,13.3-3.1,20.2c0,3.4,0.3,6.8,0.8,10.2
				c0.5,3.4,1.4,6.7,2.4,9.9c2.2,6.5,5.4,12.7,9.5,18.3c-5.1-4.8-9-10.9-11.6-17.5c-1.3-3.3-2.3-6.7-3-10.2c-0.7-3.5-1-7.1-1-10.6
				c0-3.6,0.3-7.1,0.9-10.6c0.7-3.5,1.6-7,2.9-10.3C195.7,154.9,199.5,148.7,204.6,143.9z"/>
		</g>
		<g>
			<path class="st2" d="M296.2,143.9c5,4.9,8.9,11,11.5,17.6c1.3,3.3,2.2,6.8,2.9,10.3c0.6,3.5,0.9,7.1,0.9,10.6
				c0,3.6-0.4,7.1-1,10.6c-0.7,3.5-1.6,6.9-3,10.2c-2.6,6.6-6.6,12.7-11.6,17.5c4.2-5.6,7.4-11.8,9.5-18.3c1-3.3,1.9-6.6,2.4-9.9
				c0.6-3.4,0.8-6.8,0.8-10.2c0.1-6.8-1-13.6-3.1-20.2C303.5,155.7,300.3,149.5,296.2,143.9z"/>
		</g>
		<polygon class="st1" points="271.6,272.7 267.1,272.7 263.4,287.9 236.5,287.9 233.3,272.7 228.8,272.7 228.8,245 271.6,245 		"/>
		<g>
			<g>
				<g>
					<polygon class="st1" points="220.3,169.2 229.7,175 219.1,171.8 					"/>
				</g>
				<g>
					<polygon class="st1" points="219.1,163.3 228.2,169.4 217.8,165.8 					"/>
				</g>
				<g>
					<polygon class="st1" points="219.7,155.3 229.3,162.6 218.2,157.8 					"/>
				</g>
				<g>
					<polygon class="st1" points="219.4,149.5 228.4,156.7 217.9,151.9 					"/>
				</g>
				<g>
					<polygon class="st1" points="219.3,142.2 229.4,151.9 217.6,144.5 					"/>
				</g>
				<g>
					<polygon class="st1" points="220,136.9 228.8,146.2 218.2,139.1 					"/>
				</g>
			</g>
			<g>
				<g>
					<polygon class="st1" points="280.8,171.8 270.2,175 279.7,169.2 					"/>
				</g>
				<g>
					<polygon class="st1" points="282.2,165.8 271.8,169.4 280.9,163.3 					"/>
				</g>
				<g>
					<polygon class="st1" points="281.7,157.8 270.6,162.6 280.3,155.3 					"/>
				</g>
				<g>
					<polygon class="st1" points="282.1,151.9 271.6,156.7 280.6,149.5 					"/>
				</g>
				<g>
					<polygon class="st1" points="282.4,144.5 270.5,151.9 280.7,142.2 					"/>
				</g>
				<g>
					<polygon class="st1" points="281.8,139.1 271.1,146.2 280,136.9 					"/>
				</g>
			</g>
		</g>
		<g>
			<path class="st2" d="M259.4,285.8l-4.5,0.3l-4.6,0.2c-3.1,0.1-6.3,0.2-9.5,0.2l-0.8,0l0-0.9c-0.1-6.5,0.6-12.9,0.6-19.4
				c0-1.6,0-3.2,0-4.8c0-0.8-0.1-1.6,0.1-2.5c0.1-0.8,0.4-1.7,0.8-2.4c0.8-1.5,2.1-2.8,3.7-3.6c0.8-0.4,1.7-0.6,2.6-0.7
				c0.9-0.1,1.7-0.1,2.5-0.1c0.8,0,1.6-0.1,2.5,0c0.9,0.1,1.8,0.3,2.6,0.6c1.7,0.7,3.1,2,4,3.5c0.5,0.8,0.8,1.7,1,2.6
				c0.2,0.9,0.2,1.8,0.2,2.6l-0.1,5C260,273.2,259.7,279.7,259.4,285.8z M259.2,285.7c-0.4-6.8-0.7-13.2-0.9-19.5l-0.1-4.7
				c0-0.8,0-1.5-0.1-2.2c-0.1-0.7-0.4-1.3-0.7-2c-0.7-1.2-1.8-2.2-3-2.8c-0.6-0.3-1.3-0.5-2-0.6c-0.7-0.1-1.6,0-2.3-0.1
				c-0.8,0-1.7-0.1-2.4,0c-0.7,0-1.4,0.2-2.1,0.5c-1.4,0.5-2.6,1.5-3.4,2.8c-0.4,0.6-0.7,1.3-0.9,2.1c-0.2,0.7-0.2,1.5-0.2,2.3
				c0,1.6-0.1,3.2,0,4.8c0,6.5,0.7,12.9,0.6,19.4l-0.8-0.8c3,0,6,0.1,9,0.2l4.6,0.2L259.2,285.7z"/>
		</g>
		<g>
			<polygon class="st2" points="242.5,285.8 243.5,260.5 244.4,285.8 			"/>
		</g>
		<g>
			<polygon class="st2" points="245.6,285.8 246.5,260.5 247.5,285.8 			"/>
		</g>
		<g>
			<polygon class="st2" points="252.4,285.8 253.3,260.5 254.3,285.8 			"/>
		</g>
		<g>
			<polygon class="st2" points="255.4,285.8 256.4,260.5 257.3,285.8 			"/>
		</g>
		<g>
			<polygon class="st2" points="249.1,285.8 250,260.5 251,285.8 			"/>
		</g>
	</g>
</g>
<g id="TEXTS">
	<g>
		<text transform="matrix(1 0 0 1 72.8184 338.5728)" class="st6 st7 st8"> AUTO SHOP</text>
		<text transform="matrix(1 0 0 1 72.8184 338.5728)" class="st1 st7 st8"> AUTO SHOP</text>
	</g>
	<rect x="24.3" y="370.9" class="st9" width="431" height="4"/>
</g>
<g id="TEXTURES">
</g>
</svg>
